# xmcd
# 
# Track frame offsets:
#     150
#     20297
#     40567
#     57897
#     84311
#     104691
#     122467
#     140994
#     167173
#     189326
#     205312
#     225743
#     243954
#     261764
#     278165
#     294683
#     316143
#     338553
# 
# Disc length: 4715
# 
# Revision: 0
# Processed by: cddbd v1.5.2PL0 Copyright (c) Steve Scherf et al.
# Submitted via: fre:ac v1.0.31
# 
DISCID=fb126912
DTITLE=Various Artist - ONE SHOT 80  VOL. 9
DYEAR=0
DGENRE=
TTITLE0=Climie Fisher - Love Changes (Everything)
TTITLE1=Men Without Hats - The Safety Dance
TTITLE2=Caroline Loeb - C'est La Ouate
TTITLE3=Giorgio Moroder - From Here To Eternity
TTITLE4=My Mine - Hypnotic Tango
TTITLE5=Aneka - Japanese Boy
TTITLE6=The Blow Monkeys - Digging Your Scene
TTITLE7=Timex Social Club - Rumours
TTITLE8=Flash And The Pan - Midnight Man
TTITLE9=Paul Hardcastle - 19
TTITLE10=Ivan - Fotonovela
TTITLE11=Curiosity Killed The Cat - Name And Number
TTITLE12=Godley and Creme - Cry
TTITLE13=Holly Johnson - Americanos
TTITLE14=Off - Electrica Salsa (Baba Baba)
TTITLE15=Cook Da Books - Your Eyes
TTITLE16=Billy Idol - Eyes Without A Face
TTITLE17=Falco - Rock Me Amadeus
EXTD=
EXTT0=
EXTT1=
EXTT2=
EXTT3=
EXTT4=
EXTT5=
EXTT6=
EXTT7=
EXTT8=
EXTT9=
EXTT10=
EXTT11=
EXTT12=
EXTT13=
EXTT14=
EXTT15=
EXTT16=
EXTT17=
PLAYORDER=
